<svg width="15" height="16" viewBox="0 0 15 16" fill="none" xmlns="http://www.w3.org/2000/svg">
<g clip-path="url(#clip0_42_5031)">
<path d="M7.5 2.23779C6.29477 2.23779 5.11661 2.59432 4.1145 3.26228C3.11238 3.93025 2.33133 4.87965 1.87011 5.99044C1.40889 7.10122 1.28821 8.3235 1.52334 9.5027C1.75847 10.6819 2.33884 11.7651 3.19107 12.6152C4.0433 13.4654 5.1291 14.0443 6.31117 14.2789C7.49324 14.5135 8.71849 14.3931 9.83198 13.933C10.9455 13.4729 11.8972 12.6937 12.5668 11.694C13.2364 10.6944 13.5938 9.51906 13.5938 8.31675C13.592 6.70503 12.9495 5.15982 11.807 4.02016C10.6646 2.8805 9.11564 2.23949 7.5 2.23779ZM10.1754 7.24475L6.89414 10.518C6.85061 10.5615 6.79891 10.596 6.74201 10.6195C6.6851 10.6431 6.6241 10.6552 6.5625 10.6552C6.5009 10.6552 6.4399 10.6431 6.383 10.6195C6.32609 10.596 6.2744 10.5615 6.23086 10.518L4.82461 9.1152C4.73666 9.02746 4.68724 8.90845 4.68724 8.78436C4.68724 8.66028 4.73666 8.54127 4.82461 8.45353C4.91257 8.36579 5.03186 8.31649 5.15625 8.31649C5.28064 8.31649 5.39994 8.36579 5.48789 8.45353L6.5625 9.52611L9.51211 6.58308C9.55566 6.53963 9.60737 6.50517 9.66427 6.48166C9.72117 6.45815 9.78216 6.44604 9.84375 6.44604C9.90534 6.44604 9.96633 6.45815 10.0232 6.48166C10.0801 6.50517 10.1318 6.53963 10.1754 6.58308C10.2189 6.62653 10.2535 6.6781 10.2771 6.73487C10.3006 6.79163 10.3128 6.85247 10.3128 6.91392C10.3128 6.97536 10.3006 7.0362 10.2771 7.09296C10.2535 7.14973 10.2189 7.20131 10.1754 7.24475Z" fill="white"/>
</g>
<defs>
<clipPath id="clip0_42_5031">
<rect width="15" height="14.9636" fill="white" transform="translate(0 0.834961)"/>
</clipPath>
</defs>
</svg>
