<?xml version="1.0" encoding="UTF-8"?>
<!DOCTYPE svg PUBLIC "-//W3C//DTD SVG 1.1//EN" "http://www.w3.org/Graphics/SVG/1.1/DTD/svg11.dtd">
<svg xmlns="http://www.w3.org/2000/svg" version="1.1" width="602px" height="214px" style="shape-rendering:geometricPrecision; text-rendering:geometricPrecision; image-rendering:optimizeQuality; fill-rule:evenodd; clip-rule:evenodd" xmlns:xlink="http://www.w3.org/1999/xlink">
<g><path style="opacity:0.786" fill="#fefffe" d="M 74.5,101.5 C 75.4906,74.9075 75.8239,48.2408 75.5,21.5C 78.2492,21.7261 80.9159,21.3928 83.5,20.5C 83.6949,47.0244 84.1949,73.691 85,100.5C 85.9147,101.328 86.5814,102.328 87,103.5C 86.0971,88.5204 86.4304,73.5204 88,58.5C 90.025,56.2747 92.3583,55.9414 95,57.5C 95.6667,91.5 95.6667,125.5 95,159.5C 92.7429,163.683 90.7429,168.016 89,172.5C 86.4764,180.319 84.643,188.319 83.5,196.5C 81.1335,200.251 78.4669,200.418 75.5,197C 75.9574,196.586 76.2907,196.086 76.5,195.5C 75.2506,191.258 74.4173,186.925 74,182.5C 73.2105,180.132 72.0438,177.966 70.5,176C 70.7355,175.127 71.0688,174.293 71.5,173.5C 69.4782,167.885 66.8115,162.718 63.5,158C 64.8306,124.53 64.8306,91.0297 63.5,57.5C 64.3279,56.5853 65.3279,55.9186 66.5,55.5C 68.0709,56.3094 69.7376,56.6427 71.5,56.5C 71.3601,58.1238 72.0267,59.2904 73.5,60C 71.5269,74.256 70.8602,88.756 71.5,103.5C 72.9778,103.762 74.3112,103.429 75.5,102.5C 75.3764,101.893 75.0431,101.56 74.5,101.5 Z M 77.5,143.5 C 82.2595,143.091 85.2595,145.424 86.5,150.5C 85.0346,154.438 82.3679,156.272 78.5,156C 79.3402,154.334 78.8402,154.167 77,155.5C 76.6124,153.285 75.6124,151.952 74,151.5C 73.3333,150.5 73.3333,149.5 74,148.5C 75.3866,146.953 76.5533,145.287 77.5,143.5 Z"/></g>
<g><path style="opacity:0.805" fill="#fefffe" d="M 221.5,65.5 C 227.189,65.0891 232.522,66.2558 237.5,69C 239.871,70.7432 241.205,73.0766 241.5,76C 240.922,79.9064 239.422,83.4064 237,86.5C 235.759,88.4206 234.259,88.754 232.5,87.5C 235.747,80.0744 233.747,74.5744 226.5,71C 216.361,68.241 210.361,71.9076 208.5,82C 211.514,92.6784 216.681,102.178 224,110.5C 236.533,135.601 229.033,151.101 201.5,157C 189.587,158.996 179.087,156.163 170,148.5C 164.87,140.041 165.703,132.208 172.5,125C 174.818,123.007 177.484,121.841 180.5,121.5C 170.577,140.304 176.411,150.638 198,152.5C 216.802,152.707 224.135,143.707 220,125.5C 218.941,122.382 217.608,119.382 216,116.5C 211.42,110.34 207.086,104.007 203,97.5C 197.955,80.3741 204.121,69.7074 221.5,65.5 Z"/></g>
<g><path style="opacity:0.791" fill="#fefffe" d="M 423.5,65.5 C 438.55,64.7093 447.717,71.7093 451,86.5C 452.817,93.7171 453.65,101.05 453.5,108.5C 453.138,120.732 451.638,132.732 449,144.5C 458.38,136.632 467.38,128.298 476,119.5C 483.494,110.511 487.661,100.178 488.5,88.5C 488.784,83.4608 487.451,78.9608 484.5,75C 479.284,72.2523 475.284,73.419 472.5,78.5C 471.692,78.1924 471.025,77.6924 470.5,77C 476.67,63.6309 484.837,62.1309 495,72.5C 497.941,80.0183 498.274,87.685 496,95.5C 493.779,101.61 490.779,107.277 487,112.5C 472.587,128.915 456.92,143.915 440,157.5C 438.699,156.902 437.865,155.902 437.5,154.5C 445.274,132.149 446.441,109.483 441,86.5C 435.081,72.3032 425.247,68.8032 411.5,76C 404.236,83.3601 399.736,92.1934 398,102.5C 396.513,103.741 395.68,103.241 395.5,101C 397.499,87.6543 403.833,76.9876 414.5,69C 417.571,67.7043 420.571,66.5377 423.5,65.5 Z"/></g>
<g><path style="opacity:0.696" fill="#fefffe" d="M 107.5,87.5 C 107.174,106.076 107.507,124.576 108.5,143C 105.712,144.592 103.045,147.092 100.5,150.5C 101.016,149.242 100.35,148.242 98.5,147.5C 99.2829,127.759 99.7829,107.759 100,87.5C 102.773,85.6251 105.273,85.6251 107.5,87.5 Z"/></g>
<g><path style="opacity:0.61" fill="#fefffe" d="M 51.5,86.5 C 54.1873,86.3359 56.854,86.5026 59.5,87C 60.3567,87.6891 61.0233,88.5224 61.5,89.5C 60.8455,99.1218 60.5121,108.788 60.5,118.5C 60.367,129.066 60.867,139.399 62,149.5C 60.2839,149.589 58.4506,149.256 56.5,148.5C 54.8076,146.641 53.3076,144.641 52,142.5C 51.5001,123.836 51.3334,105.17 51.5,86.5 Z"/></g>
<g><path style="opacity:0.004" fill="#fefffe" d="M 107.5,86.5 C 108.833,87.1667 108.833,87.1667 107.5,86.5 Z"/></g>
<g><path style="opacity:0.631" fill="#fefffe" d="M 325.5,99.5 C 326.756,99.4614 327.756,99.9614 328.5,101C 324.154,104.867 320.654,109.367 318,114.5C 315.875,115.851 314.708,115.185 314.5,112.5C 314.719,111.062 315.219,109.729 316,108.5C 319.062,105.268 322.229,102.268 325.5,99.5 Z"/></g>
<g><path style="opacity:0.638" fill="#fefffe" d="M 514.5,99.5 C 515.756,99.4614 516.756,99.9614 517.5,101C 513.618,105.214 510.118,109.714 507,114.5C 506.282,115.451 505.449,115.617 504.5,115C 503.446,113.612 503.28,112.112 504,110.5C 507.03,106.305 510.53,102.639 514.5,99.5 Z"/></g>
<g><path style="opacity:0.004" fill="#fefffe" d="M 74.5,101.5 C 73.8333,102.167 73.8333,102.167 74.5,101.5 Z"/></g>
<g><path style="opacity:0.793" fill="#fefffe" d="M 385.5,103.5 C 387.199,103.34 388.866,103.506 390.5,104C 387.119,109.26 384.119,114.76 381.5,120.5C 385.122,121.325 388.789,121.825 392.5,122C 388.094,122.907 383.761,124.074 379.5,125.5C 375.739,133.524 374.072,141.858 374.5,150.5C 375.167,150.833 375.833,151.167 376.5,151.5C 380.019,150.32 383.019,148.32 385.5,145.5C 386.583,146.365 386.749,147.365 386,148.5C 382.284,154.899 376.784,157.732 369.5,157C 367.333,156.167 365.833,154.667 365,152.5C 365.041,143.17 367.207,134.337 371.5,126C 369.167,125.667 366.833,125.333 364.5,125C 366.836,122.167 369.836,121 373.5,121.5C 374.949,116.536 377.115,111.869 380,107.5C 381.812,106.023 383.645,104.69 385.5,103.5 Z"/></g>
<g><path style="opacity:0.788" fill="#fefffe" d="M 336.5,116.5 C 338.451,116.227 339.951,116.893 341,118.5C 340.667,121.167 340.333,123.833 340,126.5C 343.795,121.902 348.628,120.069 354.5,121C 356.049,122.214 357.215,123.714 358,125.5C 360.057,140.222 354.223,150.389 340.5,156C 335.971,156.908 331.471,157.741 327,158.5C 323.43,167.85 321.597,177.516 321.5,187.5C 323.936,187.683 326.103,187.016 328,185.5C 329.617,186.536 329.784,187.703 328.5,189C 323.426,191.282 318.26,191.782 313,190.5C 313.124,177.716 315.624,165.383 320.5,153.5C 320.392,152.558 320.059,151.725 319.5,151C 321.617,149.269 323.117,147.102 324,144.5C 326.833,137.5 329.667,130.5 332.5,123.5C 331.998,122.479 331.332,122.312 330.5,123C 329.333,124.167 328.167,125.333 327,126.5C 326.5,126 326,125.5 325.5,125C 328.514,121.178 332.181,118.345 336.5,116.5 Z M 343.5,126.5 C 348.393,126.386 350.727,128.886 350.5,134C 349.72,147.63 342.72,153.797 329.5,152.5C 331.562,142.372 336.229,133.706 343.5,126.5 Z"/></g>
<g><path style="opacity:0.772" fill="#fefffe" d="M 255.5,120.5 C 262.182,119.373 265.682,122.04 266,128.5C 264.68,132.182 262.18,133.682 258.5,133C 260.199,129.228 259.032,126.728 255,125.5C 249.811,127.358 246.811,131.024 246,136.5C 243.47,153.284 248.47,155.951 261,144.5C 261.692,145.025 262.192,145.692 262.5,146.5C 257.586,154.29 250.586,157.79 241.5,157C 239.333,156.167 237.833,154.667 237,152.5C 236.185,137.797 242.352,127.13 255.5,120.5 Z"/></g>
<g><path style="opacity:0.799" fill="#fefffe" d="M 276.5,120.5 C 283.018,119.191 285.852,121.858 285,128.5C 288.206,122.648 293.04,120.148 299.5,121C 300.816,124.453 300.483,127.786 298.5,131C 296.612,130.873 294.946,130.04 293.5,128.5C 290.345,129.15 287.845,130.817 286,133.5C 282.414,140.592 279.414,147.925 277,155.5C 275.293,156.459 273.459,157.125 271.5,157.5C 270,157.547 269,156.881 268.5,155.5C 272.419,145.823 275.086,135.823 276.5,125.5C 273.715,125.933 271.381,127.266 269.5,129.5C 269.167,129 268.833,128.5 268.5,128C 270.567,124.81 273.233,122.31 276.5,120.5 Z"/></g>
<g><path style="opacity:0.775" fill="#fefffe" d="M 314.5,120.5 C 315.5,120.5 316.5,120.5 317.5,120.5C 313.198,129.401 309.864,138.735 307.5,148.5C 307.453,150 308.119,151 309.5,151.5C 312.094,150.408 314.261,148.741 316,146.5C 316.5,147 317,147.5 317.5,148C 313.601,154.991 307.935,157.657 300.5,156C 299.056,154.874 298.39,153.374 298.5,151.5C 299.45,144.032 301.783,137.032 305.5,130.5C 304.132,129.406 302.965,129.74 302,131.5C 301.5,131 301,130.5 300.5,130C 305.059,126.563 309.726,123.396 314.5,120.5 Z"/></g>
<g><path style="opacity:0.773" fill="#fefffe" d="M 503.5,120.5 C 504.5,120.5 505.5,120.5 506.5,120.5C 502.085,129.577 498.751,139.077 496.5,149C 496.613,150.28 497.28,151.113 498.5,151.5C 501.094,150.408 503.261,148.741 505,146.5C 505.692,147.025 506.192,147.692 506.5,148.5C 502.414,155.187 496.747,157.687 489.5,156C 488.427,154.687 487.76,153.187 487.5,151.5C 489.203,143.903 491.37,136.569 494,129.5C 492.407,131.285 490.907,131.452 489.5,130C 494.059,126.563 498.726,123.396 503.5,120.5 Z"/></g>
<g><path style="opacity:0.777" fill="#fefffe" d="M 528.5,120.5 C 533.777,119.56 537.943,121.226 541,125.5C 540.906,131.616 537.739,135.449 531.5,137C 527.527,138.028 523.527,138.861 519.5,139.5C 519.336,142.187 519.503,144.854 520,147.5C 521.821,150.991 524.654,152.157 528.5,151C 531.542,149.479 534.542,147.979 537.5,146.5C 536.115,151.056 533.115,154.222 528.5,156C 513.774,159.941 508.274,154.441 512,139.5C 514.873,130.8 520.373,124.466 528.5,120.5 Z M 528.5,124.5 C 531.987,126.448 532.82,129.114 531,132.5C 527.773,134.973 524.273,135.64 520.5,134.5C 521.417,129.6 524.084,126.267 528.5,124.5 Z"/></g>
<g><path style="opacity:0.775" fill="#fefffe" d="M 549.5,120.5 C 552.97,119.875 555.804,120.875 558,123.5C 559.163,130.103 559.83,136.77 560,143.5C 562.28,139.553 564.947,135.887 568,132.5C 568.783,126.215 572.283,122.881 578.5,122.5C 575.191,131.215 574.024,140.215 575,149.5C 580.175,152.596 584.508,151.596 588,146.5C 591.209,140.886 592.209,134.886 591,128.5C 589.573,126.213 587.739,125.88 585.5,127.5C 585.865,123.793 588.198,121.46 592.5,120.5C 597.03,122.215 599.03,125.549 598.5,130.5C 596.481,146.688 587.481,155.521 571.5,157C 569.714,156.215 568.214,155.049 567,153.5C 566.667,148.833 566.333,144.167 566,139.5C 562.748,144.334 559.748,149.334 557,154.5C 554.284,157.742 551.451,158.075 548.5,155.5C 551.395,145.95 551.895,136.283 550,126.5C 547.507,125.054 545.673,125.721 544.5,128.5C 543.692,128.192 543.025,127.692 542.5,127C 544.729,124.6 547.063,122.433 549.5,120.5 Z"/></g>
</svg>
