<svg width="106" height="28" viewBox="0 0 106 28" fill="none" xmlns="http://www.w3.org/2000/svg">
<rect y="2" width="106" height="23" rx="4" fill="white"/>
<path d="M12.8672 9.46875H15.8848C16.5332 9.46875 17.0859 9.56641 17.543 9.76172C18 9.95703 18.3496 10.2461 18.5918 10.6289C18.8379 11.0078 18.9609 11.4766 18.9609 12.0352C18.9609 12.4609 18.8828 12.8359 18.7266 13.1602C18.5703 13.4844 18.3496 13.7578 18.0645 13.9805C17.7793 14.1992 17.4395 14.3691 17.0449 14.4902L16.5996 14.707H13.8867L13.875 13.541H15.9082C16.2598 13.541 16.5527 13.4785 16.7871 13.3535C17.0215 13.2285 17.1973 13.0586 17.3145 12.8438C17.4355 12.625 17.4961 12.3789 17.4961 12.1055C17.4961 11.8086 17.4375 11.5508 17.3203 11.332C17.207 11.1094 17.0312 10.9395 16.793 10.8223C16.5547 10.7012 16.252 10.6406 15.8848 10.6406H14.3379V18H12.8672V9.46875ZM17.7363 18L15.7324 14.168L17.2734 14.1621L19.3066 17.9238V18H17.7363ZM23.0801 18.1172C22.6113 18.1172 22.1875 18.041 21.8086 17.8887C21.4336 17.7324 21.1133 17.5156 20.8477 17.2383C20.5859 16.9609 20.3848 16.6348 20.2441 16.2598C20.1035 15.8848 20.0332 15.4805 20.0332 15.0469V14.8125C20.0332 14.3164 20.1055 13.8672 20.25 13.4648C20.3945 13.0625 20.5957 12.7188 20.8535 12.4336C21.1113 12.1445 21.416 11.9238 21.7676 11.7715C22.1191 11.6191 22.5 11.543 22.9102 11.543C23.3633 11.543 23.7598 11.6191 24.0996 11.7715C24.4395 11.9238 24.7207 12.1387 24.9434 12.416C25.1699 12.6895 25.3379 13.0156 25.4473 13.3945C25.5605 13.7734 25.6172 14.1914 25.6172 14.6484V15.252H20.7188V14.2383H24.2227V14.127C24.2148 13.873 24.1641 13.6348 24.0703 13.4121C23.9805 13.1895 23.8418 13.0098 23.6543 12.873C23.4668 12.7363 23.2168 12.668 22.9043 12.668C22.6699 12.668 22.4609 12.7188 22.2773 12.8203C22.0977 12.918 21.9473 13.0605 21.8262 13.248C21.7051 13.4355 21.6113 13.6621 21.5449 13.9277C21.4824 14.1895 21.4512 14.4844 21.4512 14.8125V15.0469C21.4512 15.3242 21.4883 15.582 21.5625 15.8203C21.6406 16.0547 21.7539 16.2598 21.9023 16.4355C22.0508 16.6113 22.2305 16.75 22.4414 16.8516C22.6523 16.9492 22.8926 16.998 23.1621 16.998C23.502 16.998 23.8047 16.9297 24.0703 16.793C24.3359 16.6562 24.5664 16.4629 24.7617 16.2129L25.5059 16.9336C25.3691 17.1328 25.1914 17.3242 24.9727 17.5078C24.7539 17.6875 24.4863 17.834 24.1699 17.9473C23.8574 18.0605 23.4941 18.1172 23.0801 18.1172ZM29.3086 16.9922C29.5391 16.9922 29.7461 16.9473 29.9297 16.8574C30.1172 16.7637 30.2676 16.6348 30.3809 16.4707C30.498 16.3066 30.5625 16.1172 30.5742 15.9023H31.9043C31.8965 16.3125 31.7754 16.6855 31.541 17.0215C31.3066 17.3574 30.9961 17.625 30.6094 17.8242C30.2227 18.0195 29.7949 18.1172 29.3262 18.1172C28.8418 18.1172 28.4199 18.0352 28.0605 17.8711C27.7012 17.7031 27.4023 17.4727 27.1641 17.1797C26.9258 16.8867 26.7461 16.5488 26.625 16.166C26.5078 15.7832 26.4492 15.373 26.4492 14.9355V14.7305C26.4492 14.293 26.5078 13.8828 26.625 13.5C26.7461 13.1133 26.9258 12.7734 27.1641 12.4805C27.4023 12.1875 27.7012 11.959 28.0605 11.7949C28.4199 11.627 28.8398 11.543 29.3203 11.543C29.8281 11.543 30.2734 11.6445 30.6562 11.8477C31.0391 12.0469 31.3398 12.3262 31.5586 12.6855C31.7812 13.041 31.8965 13.4551 31.9043 13.9277H30.5742C30.5625 13.6934 30.5039 13.4824 30.3984 13.2949C30.2969 13.1035 30.1523 12.9512 29.9648 12.8379C29.7812 12.7246 29.5605 12.668 29.3027 12.668C29.0176 12.668 28.7812 12.7266 28.5938 12.8438C28.4062 12.957 28.2598 13.1133 28.1543 13.3125C28.0488 13.5078 27.9727 13.7285 27.9258 13.9746C27.8828 14.2168 27.8613 14.4688 27.8613 14.7305V14.9355C27.8613 15.1973 27.8828 15.4512 27.9258 15.6973C27.9688 15.9434 28.043 16.1641 28.1484 16.3594C28.2578 16.5508 28.4062 16.7051 28.5938 16.8223C28.7812 16.9355 29.0195 16.9922 29.3086 16.9922ZM32.7188 14.9004V14.7656C32.7188 14.3086 32.7852 13.8848 32.918 13.4941C33.0508 13.0996 33.2422 12.7578 33.4922 12.4688C33.7461 12.1758 34.0547 11.9492 34.418 11.7891C34.7852 11.625 35.1992 11.543 35.6602 11.543C36.125 11.543 36.5391 11.625 36.9023 11.7891C37.2695 11.9492 37.5801 12.1758 37.834 12.4688C38.0879 12.7578 38.2812 13.0996 38.4141 13.4941C38.5469 13.8848 38.6133 14.3086 38.6133 14.7656V14.9004C38.6133 15.3574 38.5469 15.7812 38.4141 16.1719C38.2812 16.5625 38.0879 16.9043 37.834 17.1973C37.5801 17.4863 37.2715 17.7129 36.9082 17.877C36.5449 18.0371 36.1328 18.1172 35.6719 18.1172C35.207 18.1172 34.791 18.0371 34.4238 17.877C34.0605 17.7129 33.752 17.4863 33.498 17.1973C33.2441 16.9043 33.0508 16.5625 32.918 16.1719C32.7852 15.7812 32.7188 15.3574 32.7188 14.9004ZM34.1309 14.7656V14.9004C34.1309 15.1855 34.1602 15.4551 34.2188 15.709C34.2773 15.9629 34.3691 16.1855 34.4941 16.377C34.6191 16.5684 34.7793 16.7188 34.9746 16.8281C35.1699 16.9375 35.4023 16.9922 35.6719 16.9922C35.9336 16.9922 36.1602 16.9375 36.3516 16.8281C36.5469 16.7188 36.707 16.5684 36.832 16.377C36.957 16.1855 37.0488 15.9629 37.1074 15.709C37.1699 15.4551 37.2012 15.1855 37.2012 14.9004V14.7656C37.2012 14.4844 37.1699 14.2188 37.1074 13.9688C37.0488 13.7148 36.9551 13.4902 36.8262 13.2949C36.7012 13.0996 36.541 12.9473 36.3457 12.8379C36.1543 12.7246 35.9258 12.668 35.6602 12.668C35.3945 12.668 35.1641 12.7246 34.9688 12.8379C34.7773 12.9473 34.6191 13.0996 34.4941 13.2949C34.3691 13.4902 34.2773 13.7148 34.2188 13.9688C34.1602 14.2188 34.1309 14.4844 34.1309 14.7656ZM41.209 12.9492V18H39.7969V11.6602H41.127L41.209 12.9492ZM40.9805 14.5957L40.5 14.5898C40.5 14.1523 40.5547 13.748 40.6641 13.377C40.7734 13.0059 40.9336 12.6836 41.1445 12.4102C41.3555 12.1328 41.6172 11.9199 41.9297 11.7715C42.2461 11.6191 42.6113 11.543 43.0254 11.543C43.3145 11.543 43.5781 11.5859 43.8164 11.6719C44.0586 11.7539 44.2676 11.8848 44.4434 12.0645C44.623 12.2441 44.7598 12.4746 44.8535 12.7559C44.9512 13.0371 45 13.377 45 13.7754V18H43.5879V13.8984C43.5879 13.5898 43.541 13.3477 43.4473 13.1719C43.3574 12.9961 43.2266 12.8711 43.0547 12.7969C42.8867 12.7188 42.6855 12.6797 42.4512 12.6797C42.1855 12.6797 41.959 12.7305 41.7715 12.832C41.5879 12.9336 41.4375 13.0723 41.3203 13.248C41.2031 13.4238 41.1172 13.627 41.0625 13.8574C41.0078 14.0879 40.9805 14.334 40.9805 14.5957ZM44.9121 14.2207L44.25 14.3672C44.25 13.9844 44.3027 13.623 44.4082 13.2832C44.5176 12.9395 44.6758 12.6387 44.8828 12.3809C45.0938 12.1191 45.3535 11.9141 45.6621 11.7656C45.9707 11.6172 46.3242 11.543 46.7227 11.543C47.0469 11.543 47.3359 11.5879 47.5898 11.6777C47.8477 11.7637 48.0664 11.9004 48.2461 12.0879C48.4258 12.2754 48.5625 12.5195 48.6562 12.8203C48.75 13.1172 48.7969 13.4766 48.7969 13.8984V18H47.3789V13.8926C47.3789 13.5723 47.332 13.3242 47.2383 13.1484C47.1484 12.9727 47.0195 12.8516 46.8516 12.7852C46.6836 12.7148 46.4824 12.6797 46.248 12.6797C46.0293 12.6797 45.8359 12.7207 45.668 12.8027C45.5039 12.8809 45.3652 12.9922 45.252 13.1367C45.1387 13.2773 45.0527 13.4395 44.9941 13.623C44.9395 13.8066 44.9121 14.0059 44.9121 14.2207ZM51.6621 12.9492V18H50.25V11.6602H51.5801L51.6621 12.9492ZM51.4336 14.5957L50.9531 14.5898C50.9531 14.1523 51.0078 13.748 51.1172 13.377C51.2266 13.0059 51.3867 12.6836 51.5977 12.4102C51.8086 12.1328 52.0703 11.9199 52.3828 11.7715C52.6992 11.6191 53.0645 11.543 53.4785 11.543C53.7676 11.543 54.0312 11.5859 54.2695 11.6719C54.5117 11.7539 54.7207 11.8848 54.8965 12.0645C55.0762 12.2441 55.2129 12.4746 55.3066 12.7559C55.4043 13.0371 55.4531 13.377 55.4531 13.7754V18H54.041V13.8984C54.041 13.5898 53.9941 13.3477 53.9004 13.1719C53.8105 12.9961 53.6797 12.8711 53.5078 12.7969C53.3398 12.7188 53.1387 12.6797 52.9043 12.6797C52.6387 12.6797 52.4121 12.7305 52.2246 12.832C52.041 12.9336 51.8906 13.0723 51.7734 13.248C51.6562 13.4238 51.5703 13.627 51.5156 13.8574C51.4609 14.0879 51.4336 14.334 51.4336 14.5957ZM55.3652 14.2207L54.7031 14.3672C54.7031 13.9844 54.7559 13.623 54.8613 13.2832C54.9707 12.9395 55.1289 12.6387 55.3359 12.3809C55.5469 12.1191 55.8066 11.9141 56.1152 11.7656C56.4238 11.6172 56.7773 11.543 57.1758 11.543C57.5 11.543 57.7891 11.5879 58.043 11.6777C58.3008 11.7637 58.5195 11.9004 58.6992 12.0879C58.8789 12.2754 59.0156 12.5195 59.1094 12.8203C59.2031 13.1172 59.25 13.4766 59.25 13.8984V18H57.832V13.8926C57.832 13.5723 57.7852 13.3242 57.6914 13.1484C57.6016 12.9727 57.4727 12.8516 57.3047 12.7852C57.1367 12.7148 56.9355 12.6797 56.7012 12.6797C56.4824 12.6797 56.2891 12.7207 56.1211 12.8027C55.957 12.8809 55.8184 12.9922 55.7051 13.1367C55.5918 13.2773 55.5059 13.4395 55.4473 13.623C55.3926 13.8066 55.3652 14.0059 55.3652 14.2207ZM63.498 18.1172C63.0293 18.1172 62.6055 18.041 62.2266 17.8887C61.8516 17.7324 61.5312 17.5156 61.2656 17.2383C61.0039 16.9609 60.8027 16.6348 60.6621 16.2598C60.5215 15.8848 60.4512 15.4805 60.4512 15.0469V14.8125C60.4512 14.3164 60.5234 13.8672 60.668 13.4648C60.8125 13.0625 61.0137 12.7188 61.2715 12.4336C61.5293 12.1445 61.834 11.9238 62.1855 11.7715C62.5371 11.6191 62.918 11.543 63.3281 11.543C63.7812 11.543 64.1777 11.6191 64.5176 11.7715C64.8574 11.9238 65.1387 12.1387 65.3613 12.416C65.5879 12.6895 65.7559 13.0156 65.8652 13.3945C65.9785 13.7734 66.0352 14.1914 66.0352 14.6484V15.252H61.1367V14.2383H64.6406V14.127C64.6328 13.873 64.582 13.6348 64.4883 13.4121C64.3984 13.1895 64.2598 13.0098 64.0723 12.873C63.8848 12.7363 63.6348 12.668 63.3223 12.668C63.0879 12.668 62.8789 12.7188 62.6953 12.8203C62.5156 12.918 62.3652 13.0605 62.2441 13.248C62.123 13.4355 62.0293 13.6621 61.9629 13.9277C61.9004 14.1895 61.8691 14.4844 61.8691 14.8125V15.0469C61.8691 15.3242 61.9062 15.582 61.9805 15.8203C62.0586 16.0547 62.1719 16.2598 62.3203 16.4355C62.4688 16.6113 62.6484 16.75 62.8594 16.8516C63.0703 16.9492 63.3105 16.998 63.5801 16.998C63.9199 16.998 64.2227 16.9297 64.4883 16.793C64.7539 16.6562 64.9844 16.4629 65.1797 16.2129L65.9238 16.9336C65.7871 17.1328 65.6094 17.3242 65.3906 17.5078C65.1719 17.6875 64.9043 17.834 64.5879 17.9473C64.2754 18.0605 63.9121 18.1172 63.498 18.1172ZM68.5371 13.0137V18H67.125V11.6602H68.4551L68.5371 13.0137ZM68.2852 14.5957L67.8281 14.5898C67.832 14.1406 67.8945 13.7285 68.0156 13.3535C68.1406 12.9785 68.3125 12.6562 68.5312 12.3867C68.7539 12.1172 69.0195 11.9102 69.3281 11.7656C69.6367 11.6172 69.9805 11.543 70.3594 11.543C70.6641 11.543 70.9395 11.5859 71.1855 11.6719C71.4355 11.7539 71.6484 11.8887 71.8242 12.0762C72.0039 12.2637 72.1406 12.5078 72.2344 12.8086C72.3281 13.1055 72.375 13.4707 72.375 13.9043V18H70.957V13.8984C70.957 13.5938 70.9121 13.3535 70.8223 13.1777C70.7363 12.998 70.6094 12.8711 70.4414 12.7969C70.2773 12.7188 70.0723 12.6797 69.8262 12.6797C69.584 12.6797 69.3672 12.7305 69.1758 12.832C68.9844 12.9336 68.8223 13.0723 68.6895 13.248C68.5605 13.4238 68.4609 13.627 68.3906 13.8574C68.3203 14.0879 68.2852 14.334 68.2852 14.5957ZM77.6836 16.6875V9H79.1016V18H77.8184L77.6836 16.6875ZM73.5586 14.9004V14.7773C73.5586 14.2969 73.6152 13.8594 73.7285 13.4648C73.8418 13.0664 74.0059 12.7246 74.2207 12.4395C74.4355 12.1504 74.6973 11.9297 75.0059 11.7773C75.3145 11.6211 75.6621 11.543 76.0488 11.543C76.4316 11.543 76.7676 11.6172 77.0566 11.7656C77.3457 11.9141 77.5918 12.127 77.7949 12.4043C77.998 12.6777 78.1602 13.0059 78.2812 13.3887C78.4023 13.7676 78.4883 14.1895 78.5391 14.6543V15.0469C78.4883 15.5 78.4023 15.9141 78.2812 16.2891C78.1602 16.6641 77.998 16.9883 77.7949 17.2617C77.5918 17.5352 77.3438 17.7461 77.0508 17.8945C76.7617 18.043 76.4238 18.1172 76.0371 18.1172C75.6543 18.1172 75.3086 18.0371 75 17.877C74.6953 17.7168 74.4355 17.4922 74.2207 17.2031C74.0059 16.9141 73.8418 16.5742 73.7285 16.1836C73.6152 15.7891 73.5586 15.3613 73.5586 14.9004ZM74.9707 14.7773V14.9004C74.9707 15.1895 74.9961 15.459 75.0469 15.709C75.1016 15.959 75.1855 16.1797 75.2988 16.3711C75.4121 16.5586 75.5586 16.707 75.7383 16.8164C75.9219 16.9219 76.1406 16.9746 76.3945 16.9746C76.7148 16.9746 76.9785 16.9043 77.1855 16.7637C77.3926 16.623 77.5547 16.4336 77.6719 16.1953C77.793 15.9531 77.875 15.6836 77.918 15.3867V14.3262C77.8945 14.0957 77.8457 13.8809 77.7715 13.6816C77.7012 13.4824 77.6055 13.3086 77.4844 13.1602C77.3633 13.0078 77.2129 12.8906 77.0332 12.8086C76.8574 12.7227 76.6484 12.6797 76.4062 12.6797C76.1484 12.6797 75.9297 12.7344 75.75 12.8438C75.5703 12.9531 75.4219 13.1035 75.3047 13.2949C75.1914 13.4863 75.1074 13.709 75.0527 13.9629C74.998 14.2168 74.9707 14.4883 74.9707 14.7773ZM83.373 18.1172C82.9043 18.1172 82.4805 18.041 82.1016 17.8887C81.7266 17.7324 81.4062 17.5156 81.1406 17.2383C80.8789 16.9609 80.6777 16.6348 80.5371 16.2598C80.3965 15.8848 80.3262 15.4805 80.3262 15.0469V14.8125C80.3262 14.3164 80.3984 13.8672 80.543 13.4648C80.6875 13.0625 80.8887 12.7188 81.1465 12.4336C81.4043 12.1445 81.709 11.9238 82.0605 11.7715C82.4121 11.6191 82.793 11.543 83.2031 11.543C83.6562 11.543 84.0527 11.6191 84.3926 11.7715C84.7324 11.9238 85.0137 12.1387 85.2363 12.416C85.4629 12.6895 85.6309 13.0156 85.7402 13.3945C85.8535 13.7734 85.9102 14.1914 85.9102 14.6484V15.252H81.0117V14.2383H84.5156V14.127C84.5078 13.873 84.457 13.6348 84.3633 13.4121C84.2734 13.1895 84.1348 13.0098 83.9473 12.873C83.7598 12.7363 83.5098 12.668 83.1973 12.668C82.9629 12.668 82.7539 12.7188 82.5703 12.8203C82.3906 12.918 82.2402 13.0605 82.1191 13.248C81.998 13.4355 81.9043 13.6621 81.8379 13.9277C81.7754 14.1895 81.7441 14.4844 81.7441 14.8125V15.0469C81.7441 15.3242 81.7812 15.582 81.8555 15.8203C81.9336 16.0547 82.0469 16.2598 82.1953 16.4355C82.3438 16.6113 82.5234 16.75 82.7344 16.8516C82.9453 16.9492 83.1855 16.998 83.4551 16.998C83.7949 16.998 84.0977 16.9297 84.3633 16.793C84.6289 16.6562 84.8594 16.4629 85.0547 16.2129L85.7988 16.9336C85.6621 17.1328 85.4844 17.3242 85.2656 17.5078C85.0469 17.6875 84.7793 17.834 84.4629 17.9473C84.1504 18.0605 83.7871 18.1172 83.373 18.1172ZM90.8789 16.6875V9H92.2969V18H91.0137L90.8789 16.6875ZM86.7539 14.9004V14.7773C86.7539 14.2969 86.8105 13.8594 86.9238 13.4648C87.0371 13.0664 87.2012 12.7246 87.416 12.4395C87.6309 12.1504 87.8926 11.9297 88.2012 11.7773C88.5098 11.6211 88.8574 11.543 89.2441 11.543C89.627 11.543 89.9629 11.6172 90.252 11.7656C90.541 11.9141 90.7871 12.127 90.9902 12.4043C91.1934 12.6777 91.3555 13.0059 91.4766 13.3887C91.5977 13.7676 91.6836 14.1895 91.7344 14.6543V15.0469C91.6836 15.5 91.5977 15.9141 91.4766 16.2891C91.3555 16.6641 91.1934 16.9883 90.9902 17.2617C90.7871 17.5352 90.5391 17.7461 90.2461 17.8945C89.957 18.043 89.6191 18.1172 89.2324 18.1172C88.8496 18.1172 88.5039 18.0371 88.1953 17.877C87.8906 17.7168 87.6309 17.4922 87.416 17.2031C87.2012 16.9141 87.0371 16.5742 86.9238 16.1836C86.8105 15.7891 86.7539 15.3613 86.7539 14.9004ZM88.166 14.7773V14.9004C88.166 15.1895 88.1914 15.459 88.2422 15.709C88.2969 15.959 88.3809 16.1797 88.4941 16.3711C88.6074 16.5586 88.7539 16.707 88.9336 16.8164C89.1172 16.9219 89.3359 16.9746 89.5898 16.9746C89.9102 16.9746 90.1738 16.9043 90.3809 16.7637C90.5879 16.623 90.75 16.4336 90.8672 16.1953C90.9883 15.9531 91.0703 15.6836 91.1133 15.3867V14.3262C91.0898 14.0957 91.041 13.8809 90.9668 13.6816C90.8965 13.4824 90.8008 13.3086 90.6797 13.1602C90.5586 13.0078 90.4082 12.8906 90.2285 12.8086C90.0527 12.7227 89.8438 12.6797 89.6016 12.6797C89.3438 12.6797 89.125 12.7344 88.9453 12.8438C88.7656 12.9531 88.6172 13.1035 88.5 13.2949C88.3867 13.4863 88.3027 13.709 88.248 13.9629C88.1934 14.2168 88.166 14.4883 88.166 14.7773Z" fill="black"/>
</svg>
