<svg width="108" height="32" viewBox="0 0 108 32" fill="none" xmlns="http://www.w3.org/2000/svg">
<path d="M0.0292448 18.7428C0.0292448 17.7328 0.287623 16.8755 0.804378 16.1708C1.34462 15.4661 2.07278 14.9259 2.98884 14.5501C3.10629 14.5031 3.1885 14.5383 3.23548 14.6558C3.28246 14.7732 3.27071 14.8789 3.20024 14.9729C2.77745 15.2078 2.43686 15.5718 2.17848 16.0651C1.94359 16.5584 1.82614 17.1573 1.82614 17.862C1.82614 19.2948 2.35465 20.4223 3.41165 21.2444C4.46865 22.0665 5.84275 22.4776 7.53395 22.4776C9.7419 22.4776 11.3157 22.043 12.2552 21.1739C13.2183 20.3048 13.6998 19.1656 13.6998 17.7563C13.6998 16.4409 13.4297 15.29 12.8894 14.3034C12.3492 13.2934 11.7502 12.3539 11.0925 11.4848C10.4583 10.5922 9.87109 9.69961 9.33085 8.80703C8.7906 7.91445 8.52048 6.90443 8.52048 5.77696C8.52048 5.11928 8.66141 4.48508 8.94328 3.87436C9.24863 3.26365 9.65969 2.72341 10.1764 2.25363C10.7167 1.76036 11.3509 1.3728 12.079 1.09093C12.8072 0.809063 13.6058 0.66813 14.4749 0.66813C15.6728 0.66813 16.6124 0.926508 17.2936 1.44326C17.9982 1.93653 18.3506 2.5355 18.3506 3.24016C18.3506 3.63948 18.1744 4.13274 17.8221 4.71996C17.4932 5.2837 17.1526 5.77696 16.8003 6.19976C16.7064 6.24674 16.6241 6.235 16.5537 6.16453C16.4832 6.09406 16.4597 6.01185 16.4832 5.9179C16.6007 5.72999 16.6946 5.50684 16.7651 5.24847C16.859 4.9666 16.906 4.66124 16.906 4.3324C16.906 3.95657 16.8238 3.60424 16.6594 3.2754C16.495 2.92306 16.2601 2.62945 15.9547 2.39456C15.6494 2.13619 15.297 1.93653 14.8977 1.7956C14.4984 1.63118 14.0756 1.54896 13.6293 1.54896C12.4549 1.54896 11.5975 1.83083 11.0573 2.39456C10.517 2.9583 10.2469 3.68645 10.2469 4.57903C10.2469 5.2837 10.3761 5.95313 10.6345 6.58733C10.9163 7.19804 11.2569 7.8205 11.6562 8.4547C12.0556 9.06541 12.4784 9.68786 12.9246 10.3221C13.3944 10.9328 13.829 11.5787 14.2283 12.2599C14.6276 12.9176 14.9564 13.6223 15.2148 14.3739C15.4967 15.1021 15.6376 15.9007 15.6376 16.7698C15.6376 17.6858 15.4027 18.5432 14.9329 19.3418C14.4867 20.1404 13.8642 20.8451 13.0656 21.4558C12.267 22.043 11.3391 22.5128 10.2821 22.8651C9.22515 23.194 8.08593 23.3584 6.86451 23.3584C4.63307 23.3584 2.93012 22.9239 1.75568 22.0548C0.604723 21.1857 0.0292448 20.0817 0.0292448 18.7428ZM23.3077 17.5097C23.1668 17.5566 23.0963 17.4979 23.0963 17.3335C23.2608 16.8402 23.2255 16.4057 22.9906 16.0299C22.7792 15.654 22.3799 15.4661 21.7927 15.4661C21.0411 15.4661 20.4304 15.9359 19.9606 16.8755C19.5143 17.815 19.2911 19.0364 19.2911 20.5397C19.2911 21.6437 19.7257 22.1957 20.5948 22.1957C20.9941 22.1957 21.4286 22.0548 21.8984 21.7729C22.3917 21.4675 22.838 21.08 23.2373 20.6102C23.3312 20.5632 23.4134 20.575 23.4839 20.6454C23.5544 20.7159 23.5661 20.7981 23.5191 20.8921C22.9319 21.6437 22.2742 22.2427 21.5461 22.689C20.8179 23.1353 20.0428 23.3584 19.2207 23.3584C18.7039 23.3584 18.2694 23.1822 17.917 22.8299C17.5647 22.4541 17.3885 21.9373 17.3885 21.2796C17.3885 20.4575 17.553 19.6354 17.8818 18.8133C18.2341 17.9677 18.6804 17.2161 19.2207 16.5584C19.7609 15.9007 20.3481 15.3722 20.9823 14.9729C21.6165 14.5501 22.239 14.3387 22.8497 14.3387C23.39 14.3387 23.8128 14.4913 24.1181 14.7967C24.4235 15.1021 24.5761 15.4426 24.5761 15.8185C24.5761 15.9594 24.5292 16.1121 24.4352 16.2765C24.3647 16.4409 24.259 16.6053 24.1181 16.7698C24.0007 16.9342 23.8597 17.0869 23.6953 17.2278C23.5544 17.3687 23.4252 17.4627 23.3077 17.5097ZM29.1746 15.3604C29.1746 15.7128 29.1394 16.1121 29.0689 16.5584C28.9985 17.0047 28.9045 17.4627 28.7871 17.9325C29.2569 16.805 29.7736 15.9242 30.3373 15.29C30.9011 14.6558 31.5118 14.3387 32.1695 14.3387C32.5218 14.3387 32.7919 14.4209 32.9798 14.5853C33.1678 14.7497 33.2617 14.9611 33.2617 15.2195C33.2617 15.4544 33.1678 15.7597 32.9798 16.1356C32.8154 16.5114 32.6745 16.7698 32.557 16.9107C32.5101 16.9342 32.4631 16.9342 32.4161 16.9107C32.3691 16.8637 32.3456 16.8167 32.3456 16.7698C32.3456 16.6053 32.2752 16.4644 32.1342 16.347C32.0168 16.2295 31.8289 16.1708 31.5705 16.1708C30.7484 16.1708 29.9968 16.7345 29.3156 17.862C28.6579 18.966 28.0472 20.5632 27.4834 22.6537C27.46 22.7712 27.3777 22.8769 27.2368 22.9708C27.0959 23.0413 26.9315 23.1118 26.7435 23.1822C26.5791 23.2292 26.403 23.2762 26.215 23.3232C26.0271 23.3467 25.8627 23.3584 25.7218 23.3584C25.4634 23.3584 25.3929 23.2175 25.5104 22.9356C25.7218 22.4423 25.9214 21.9138 26.1093 21.3501C26.3207 20.7629 26.5087 20.1757 26.6731 19.5884C26.8375 19.0012 26.9784 18.4375 27.0959 17.8972C27.2133 17.3335 27.3073 16.8167 27.3777 16.347C27.4247 15.9946 27.4365 15.7245 27.413 15.5366C27.413 15.3487 27.319 15.2547 27.1311 15.2547C26.8962 15.2547 26.6496 15.3604 26.3912 15.5718C26.1563 15.7597 25.9332 16.0064 25.7218 16.3117C25.6278 16.3822 25.5339 16.3939 25.4399 16.347C25.3694 16.2765 25.3577 16.1943 25.4047 16.1003C25.5456 15.9124 25.71 15.7245 25.8979 15.5366C26.1093 15.3252 26.3325 15.1373 26.5674 14.9729C26.8258 14.785 27.0841 14.6323 27.3425 14.5148C27.6244 14.3974 27.9062 14.3387 28.1881 14.3387C28.5639 14.3387 28.8223 14.4326 28.9632 14.6205C29.1042 14.785 29.1746 15.0316 29.1746 15.3604ZM37.4515 12.8236C37.381 12.8941 37.2988 12.8941 37.2048 12.8236C37.1344 12.7532 37.0756 12.6592 37.0287 12.5418C36.9817 12.4008 36.9582 12.2599 36.9582 12.119C36.9582 11.9545 36.9934 11.8136 37.0639 11.6962C37.3223 11.3673 37.6981 10.9563 38.1914 10.463C38.7081 9.94624 39.2366 9.5117 39.7769 9.15936C39.8238 9.13588 39.8826 9.15936 39.953 9.22983C40.0235 9.27681 40.047 9.32379 40.0235 9.37076C39.5302 9.81705 39.0604 10.3573 38.6142 10.9915C38.1679 11.6022 37.7803 12.2129 37.4515 12.8236ZM33.6815 16.805C33.611 16.852 33.5523 16.8402 33.5053 16.7698C33.4583 16.6758 33.4466 16.5936 33.4701 16.5231C34.3392 15.8185 35.5489 15.0903 37.0991 14.3387C37.287 14.3387 37.381 14.4444 37.381 14.6558C37.0756 15.196 36.7703 15.7832 36.4649 16.4174C36.1831 17.0516 35.9247 17.6858 35.6898 18.32C35.4784 18.9307 35.3022 19.5297 35.1613 20.1169C35.0204 20.6807 34.9499 21.1504 34.9499 21.5263C34.9499 21.996 35.1143 22.2309 35.4432 22.2309C35.7015 22.2309 35.9482 22.1252 36.1831 21.9138C36.4414 21.6789 36.735 21.3853 37.0639 21.033C37.1109 20.986 37.1696 20.9978 37.2401 21.0682C37.3105 21.1152 37.3223 21.1974 37.2753 21.3149C36.7585 21.9256 36.2418 22.4188 35.725 22.7947C35.2318 23.1705 34.7502 23.3584 34.2805 23.3584C33.4583 23.3584 33.0473 22.9708 33.0473 22.1957C33.0473 21.7729 33.106 21.2796 33.2235 20.7159C33.3644 20.1287 33.5406 19.5415 33.752 18.9542C33.9868 18.3435 34.2335 17.7563 34.4919 17.1926C34.7737 16.6053 35.0556 16.1003 35.3375 15.6775C35.0791 15.8185 34.7855 15.9946 34.4566 16.206C34.1513 16.4174 33.8929 16.6171 33.6815 16.805ZM46.0137 14.3387C46.5305 14.3387 46.9415 14.597 47.2469 15.1138C47.5757 15.6071 47.7401 16.1943 47.7401 16.8755C47.7401 17.8385 47.5405 18.7193 47.1412 19.518C46.7653 20.2931 46.2603 20.9743 45.6261 21.5615C44.9919 22.1252 44.2638 22.5715 43.4417 22.9004C42.6196 23.2057 41.7857 23.3584 40.9401 23.3584C40.5408 23.3584 40.2002 23.3114 39.9183 23.2175C39.519 24.3684 39.1549 25.6016 38.8261 26.917C38.5207 28.2323 38.3681 29.4538 38.3681 30.5812C38.3681 31.1215 38.6264 31.3329 39.1432 31.2154C39.3311 31.1919 39.5073 31.145 39.6717 31.0745C39.8596 31.004 40.0358 30.9101 40.2002 30.7926C40.2942 30.7926 40.3411 30.8396 40.3411 30.9336C40.3646 31.0275 40.3529 31.1215 40.3059 31.2154C40.165 31.2859 39.9536 31.3564 39.6717 31.4268C39.4133 31.5208 39.1315 31.603 38.8261 31.6735C38.5207 31.7674 38.2154 31.8379 37.91 31.8849C37.6047 31.9318 37.3463 31.9553 37.1349 31.9553C36.947 31.9553 36.7943 31.9084 36.6769 31.8144C36.5594 31.7204 36.5007 31.5795 36.5007 31.3916C36.5007 30.1937 36.7004 28.7961 37.0997 27.1988C37.4755 25.6251 37.9688 23.9926 38.5795 22.3014C38.4385 22.1135 38.3563 21.9608 38.3328 21.8434C38.3093 21.7494 38.4855 21.6437 38.8613 21.5263C39.1667 20.6807 39.4955 19.8351 39.8479 18.9895C40.2002 18.1439 40.5525 17.31 40.9049 16.4879C41.3512 15.5249 41.5508 14.9259 41.5038 14.691C41.4803 14.4561 41.3394 14.4091 41.081 14.5501C40.7287 14.738 40.3411 15.0668 39.9183 15.5366C39.8714 15.5836 39.8126 15.5718 39.7422 15.5014C39.6952 15.4074 39.6834 15.3369 39.7069 15.29C39.8714 15.1021 40.0828 14.9024 40.3411 14.691C40.5995 14.4561 40.8696 14.2447 41.1515 14.0568C41.4569 13.8689 41.7505 13.7162 42.0323 13.5988C42.3142 13.4578 42.5608 13.3874 42.7722 13.3874C43.0306 13.3874 43.195 13.5048 43.2655 13.7397C43.3595 13.9511 43.3477 14.186 43.2303 14.4444C42.9249 15.2665 42.5256 16.1943 42.0323 17.2278C42.2672 16.899 42.5373 16.5701 42.8427 16.2413C43.1481 15.8889 43.4652 15.5718 43.794 15.29C44.1463 15.0081 44.5104 14.785 44.8862 14.6205C45.2621 14.4326 45.6379 14.3387 46.0137 14.3387ZM41.8209 22.6537C42.3847 22.6537 42.9132 22.548 43.4064 22.3366C43.8997 22.1017 44.3225 21.7729 44.6748 21.3501C45.0507 20.9038 45.3443 20.3636 45.5557 19.7294C45.7906 19.0717 45.908 18.32 45.908 17.4744C45.908 16.9107 45.8023 16.4527 45.5909 16.1003C45.3795 15.748 45.0741 15.5718 44.6748 15.5718C44.1346 15.5718 43.4886 16.0534 42.737 17.0164C41.9854 17.9794 41.2924 19.3301 40.6582 21.0682C40.5878 21.2561 40.5173 21.4558 40.4468 21.6672C40.3764 21.8551 40.3059 22.0548 40.2354 22.2662C40.6113 22.5245 41.1398 22.6537 41.8209 22.6537ZM55.9115 14.5148C56.029 14.5618 56.0759 14.6323 56.0524 14.7262C56.029 14.7967 55.9233 14.8554 55.7353 14.9024C55.383 14.9024 54.972 14.9141 54.5022 14.9376C54.0559 14.9611 53.5744 14.9964 53.0576 15.0433C52.5878 16.1943 52.2003 17.3218 51.8949 18.4257C51.5896 19.5062 51.4369 20.3871 51.4369 21.0682C51.4369 21.8669 51.7422 22.2662 52.3529 22.2662C52.9637 22.2662 53.6448 21.7377 54.3965 20.6807C54.4669 20.6337 54.5257 20.6337 54.5726 20.6807C54.6431 20.7276 54.6666 20.8099 54.6431 20.9273C54.2438 21.585 53.7388 22.1605 53.1281 22.6537C52.5174 23.1235 51.9184 23.3584 51.3312 23.3584C50.7205 23.3584 50.2624 23.2175 49.9571 22.9356C49.6752 22.6302 49.5343 22.2192 49.5343 21.7024C49.5343 21.0213 49.6987 20.0817 50.0275 18.8838C50.3564 17.6858 50.7792 16.4644 51.2959 15.2195C50.6852 15.29 50.1215 15.3839 49.6047 15.5014C49.4873 15.4779 49.4521 15.4192 49.499 15.3252C49.5695 15.2312 49.6752 15.1373 49.8161 15.0433C49.9806 14.9259 50.1685 14.8319 50.3799 14.7615C50.5913 14.6675 50.7909 14.6205 50.9788 14.6205C51.0728 14.6205 51.1668 14.6205 51.2607 14.6205C51.3547 14.6205 51.4486 14.6088 51.5426 14.5853C51.8479 13.9041 52.165 13.2464 52.4939 12.6122C52.8227 11.978 53.1516 11.4026 53.4804 10.8858C53.6213 10.7214 53.8093 10.5804 54.0441 10.463C54.3025 10.3221 54.5492 10.2164 54.784 10.1459C55.0189 10.0754 55.2068 10.0402 55.3478 10.0402C55.5122 10.0167 55.5827 10.0519 55.5592 10.1459C55.1599 10.7566 54.7606 11.4378 54.3612 12.1894C53.9854 12.9411 53.6213 13.728 53.269 14.5501C53.7153 14.5266 54.1616 14.5148 54.6079 14.5148C55.0777 14.5148 55.5122 14.5148 55.9115 14.5148ZM82.4607 4.82566C82.4607 6.63431 82.0379 8.31376 81.1923 9.86403C80.3701 11.3908 79.2779 12.8824 77.9156 14.3387C76.5767 15.7715 75.0617 17.2278 73.3705 18.7076C71.6793 20.1639 69.9763 21.7259 68.2616 23.3936C67.8388 23.3936 67.7331 23.0296 67.9445 22.3014C68.3908 20.939 68.7549 19.4945 69.0368 17.9677C69.3186 16.4409 69.4948 14.9259 69.5653 13.4226C69.6357 11.9193 69.5887 10.4865 69.4243 9.12413C69.2599 7.76178 68.9545 6.56384 68.5083 5.53033C68.0855 4.47333 67.4982 3.63948 66.7466 3.02876C65.9949 2.39456 65.0671 2.07746 63.9632 2.07746C62.3659 2.07746 61.0505 2.71166 60.017 3.98006C58.9835 5.22498 58.1379 7.13932 57.4802 9.7231C57.4332 9.81705 57.3628 9.85229 57.2688 9.8288C57.1749 9.80531 57.1279 9.74659 57.1279 9.65263C57.4332 8.33725 57.8091 7.12758 58.2554 6.0236C58.7251 4.91962 59.2771 3.98006 59.9113 3.20493C60.569 2.40631 61.3324 1.78385 62.2015 1.33756C63.0706 0.891275 64.0689 0.66813 65.1963 0.66813C66.2768 0.66813 67.2046 0.938252 67.9798 1.4785C68.7549 2.01874 69.4008 2.75864 69.9176 3.6982C70.4343 4.63775 70.8102 5.75348 71.0451 7.04536C71.2799 8.31376 71.3974 9.69961 71.3974 11.2029C71.3974 12.6827 71.2682 14.2447 71.0098 15.8889C70.7749 17.5097 70.4343 19.1421 69.9881 20.7864C71.6323 19.424 73.1121 18.1439 74.4275 16.9459C75.7428 15.748 76.8468 14.5736 77.7394 13.4226C78.632 12.2482 79.3131 11.062 79.7829 9.86403C80.2762 8.6661 80.5228 7.38595 80.5228 6.0236C80.5228 4.91962 80.2879 4.02704 79.8182 3.34586C79.3484 2.66469 78.7729 2.3241 78.0917 2.3241C77.6689 2.3241 77.3283 2.4298 77.07 2.6412C76.8351 2.82911 76.6237 3.13446 76.4358 3.55726C76.2009 3.65122 76.0834 3.56901 76.0834 3.31063C76.2009 2.98179 76.3653 2.66469 76.5767 2.35933C76.8116 2.03049 77.0465 1.74862 77.2814 1.51373C77.5397 1.25535 77.7981 1.0557 78.0565 0.914764C78.3149 0.750341 78.5498 0.66813 78.7612 0.66813C79.3249 0.66813 79.8299 0.785575 80.2762 1.02046C80.746 1.25535 81.1335 1.57245 81.4389 1.97176C81.7677 2.34759 82.0144 2.79388 82.1788 3.31063C82.3667 3.8039 82.4607 4.30891 82.4607 4.82566ZM84.7274 12.8236C84.657 12.8941 84.5748 12.8941 84.4808 12.8236C84.4103 12.7532 84.3516 12.6592 84.3046 12.5418C84.2577 12.4008 84.2342 12.2599 84.2342 12.119C84.2342 11.9545 84.2694 11.8136 84.3399 11.6962C84.5982 11.3673 84.9741 10.9563 85.4673 10.463C85.9841 9.94624 86.5126 9.5117 87.0528 9.15936C87.0998 9.13588 87.1585 9.15936 87.229 9.22983C87.2995 9.27681 87.323 9.32379 87.2995 9.37076C86.8062 9.81705 86.3364 10.3573 85.8901 10.9915C85.4438 11.6022 85.0563 12.2129 84.7274 12.8236ZM80.9575 16.805C80.887 16.852 80.8283 16.8402 80.7813 16.7698C80.7343 16.6758 80.7226 16.5936 80.7461 16.5231C81.6152 15.8185 82.8248 15.0903 84.3751 14.3387C84.563 14.3387 84.657 14.4444 84.657 14.6558C84.3516 15.196 84.0463 15.7832 83.7409 16.4174C83.459 17.0516 83.2007 17.6858 82.9658 18.32C82.7544 18.9307 82.5782 19.5297 82.4373 20.1169C82.2963 20.6807 82.2259 21.1504 82.2259 21.5263C82.2259 21.996 82.3903 22.2309 82.7191 22.2309C82.9775 22.2309 83.2241 22.1252 83.459 21.9138C83.7174 21.6789 84.011 21.3853 84.3399 21.033C84.3868 20.986 84.4456 20.9978 84.516 21.0682C84.5865 21.1152 84.5982 21.1974 84.5513 21.3149C84.0345 21.9256 83.5178 22.4188 83.001 22.7947C82.5077 23.1705 82.0262 23.3584 81.5564 23.3584C80.7343 23.3584 80.3233 22.9708 80.3233 22.1957C80.3233 21.7729 80.382 21.2796 80.4994 20.7159C80.6404 20.1287 80.8165 19.5415 81.0279 18.9542C81.2628 18.3435 81.5095 17.7563 81.7678 17.1926C82.0497 16.6053 82.3316 16.1003 82.6134 15.6775C82.3551 15.8185 82.0614 15.9946 81.7326 16.206C81.4272 16.4174 81.1689 16.6171 80.9575 16.805ZM93.3249 16.1003C93.3249 17.4392 91.5515 18.3553 88.0047 18.8485C87.9812 19.0834 87.9577 19.3183 87.9342 19.5532C87.9342 19.7881 87.9342 20.0347 87.9342 20.2931C87.9342 20.9038 88.0751 21.3736 88.357 21.7024C88.6389 22.0313 89.0852 22.1957 89.6959 22.1957C90.1422 22.1957 90.6002 22.0665 91.07 21.8081C91.5398 21.5498 91.9156 21.2209 92.1974 20.8216C92.2914 20.7746 92.3619 20.7981 92.4088 20.8921C92.4558 20.9625 92.4676 21.0447 92.4441 21.1387C91.9743 21.7494 91.3753 22.2779 90.6472 22.7242C89.9425 23.147 89.1791 23.3584 88.357 23.3584C87.5349 23.3584 86.9359 23.1587 86.5601 22.7594C86.2078 22.3366 86.0316 21.7494 86.0316 20.9978C86.0316 20.2696 86.1843 19.518 86.4896 18.7428C86.795 17.9442 87.1826 17.2161 87.6523 16.5584C88.1456 15.9007 88.6976 15.3722 89.3083 14.9729C89.9425 14.5501 90.5767 14.3387 91.2109 14.3387C91.8451 14.3387 92.3501 14.5266 92.7259 14.9024C93.1253 15.2547 93.3249 15.654 93.3249 16.1003ZM90.2596 15.2547C89.7194 15.2547 89.2496 15.5131 88.8503 16.0299C88.4745 16.5231 88.2161 17.2983 88.0751 18.3553C89.2026 18.2378 90.0365 18.0264 90.5767 17.7211C91.117 17.3922 91.3871 16.9929 91.3871 16.5231C91.3871 16.1708 91.2814 15.8772 91.07 15.6423C90.8586 15.3839 90.5885 15.2547 90.2596 15.2547ZM106.196 14.3387C106.595 14.3387 106.936 14.5618 107.218 15.0081C107.499 15.4309 107.64 15.9829 107.64 16.6641C107.64 17.5801 107.429 18.4492 107.006 19.2713C106.607 20.07 106.102 20.7746 105.491 21.3853C104.88 21.996 104.223 22.4776 103.518 22.8299C102.813 23.1822 102.167 23.3584 101.58 23.3584C101.017 23.3584 100.594 23.1822 100.312 22.8299C100.053 22.4776 99.9243 21.996 99.9243 21.3853C99.9243 20.8216 99.9713 20.1757 100.065 19.4475C100.159 18.7193 100.265 18.1204 100.382 17.6506C99.9125 18.2613 99.4193 18.9895 98.9025 19.8351C98.3858 20.6807 97.869 21.5498 97.3522 22.4423C97.2113 22.7007 96.9882 22.9239 96.6828 23.1118C96.3775 23.2762 96.0838 23.3584 95.802 23.3584C95.6141 23.3584 95.5436 23.2292 95.5906 22.9708C95.755 22.4071 95.8842 21.7142 95.9781 20.8921C96.0956 20.0465 96.1543 19.2244 96.1543 18.4257C96.1543 17.6271 96.0956 16.9342 95.9781 16.347C95.8842 15.7597 95.6963 15.4074 95.4144 15.29C95.25 15.243 95.0621 15.29 94.8507 15.4309C94.6393 15.5718 94.4749 15.7715 94.3574 16.0299C94.3104 16.0768 94.2517 16.0768 94.1812 16.0299C94.1108 15.9594 94.0873 15.8772 94.1108 15.7832C94.2282 15.5014 94.4983 15.196 94.9211 14.8672C95.3674 14.5148 95.8372 14.3387 96.3305 14.3387C96.8942 14.3387 97.2935 14.6323 97.5284 15.2195C97.7868 15.8067 97.916 16.7698 97.916 18.1086C97.916 18.7193 97.8925 19.2831 97.8455 19.7998C97.7985 20.2931 97.7398 20.7276 97.6693 21.1035C98.1391 20.2814 98.5854 19.5767 99.0082 18.9895C99.431 18.4022 99.8303 17.862 100.206 17.3687C100.347 17.1808 100.465 16.9694 100.558 16.7345C100.676 16.4762 100.793 16.1238 100.911 15.6775C100.934 15.5366 101.04 15.4074 101.228 15.29C101.439 15.149 101.651 15.0433 101.862 14.9729C102.097 14.9024 102.297 14.8672 102.461 14.8672C102.626 14.8437 102.708 14.8907 102.708 15.0081C102.332 15.7832 102.05 16.6876 101.862 17.7211C101.674 18.7311 101.58 19.6706 101.58 20.5397C101.58 21.127 101.721 21.5615 102.003 21.8434C102.285 22.1017 102.626 22.2309 103.025 22.2309C103.448 22.2309 103.847 22.1017 104.223 21.8434C104.622 21.585 104.974 21.2444 105.28 20.8216C105.585 20.3988 105.832 19.9055 106.02 19.3418C106.208 18.7546 106.302 18.1439 106.302 17.5097C106.302 16.5936 106.125 16.0064 105.773 15.748C105.421 15.4896 105.045 15.5249 104.646 15.8537C104.552 15.8772 104.481 15.8654 104.434 15.8185C104.387 15.748 104.375 15.6775 104.399 15.6071C104.469 15.4896 104.587 15.3604 104.751 15.2195C104.916 15.0551 105.08 14.9141 105.245 14.7967C105.432 14.6558 105.609 14.5501 105.773 14.4796C105.961 14.3856 106.102 14.3387 106.196 14.3387Z" fill="white"/>
</svg>
